<svg width="100" height="80" viewBox="0 0 100 80" fill="none" xmlns="http://www.w3.org/2000/svg">
<path d="M74.106 28.8052C81.4018 32.4866 90.3396 34.6526 99.9927 34.6526V21.5409C98.1657 21.5412 96.3436 21.4066 94.5562 21.1393V31.4601C84.904 31.4601 75.9673 29.2943 68.67 25.6132V52.3707C68.67 65.7564 53.2972 76.6066 34.3356 76.6066C27.2606 76.6066 20.6843 75.0968 15.2217 72.5073C21.4565 77.0074 30.1514 79.7989 39.7705 79.7989C58.7337 79.7989 74.1068 68.9486 74.1068 55.5624V28.8052H74.106ZM80.8127 15.5771C77.084 12.7018 74.6357 8.98589 74.106 4.87775V3.19141H68.9543C70.2511 8.41265 74.6748 12.8733 80.8127 15.5771ZM27.2149 62.2358C25.1317 60.3079 24.0057 57.9492 24.0107 55.5241C24.0107 49.4022 31.042 44.4383 39.717 44.4383C41.3334 44.4377 42.9403 44.6129 44.4812 44.9578V31.5528C42.6805 31.3787 40.8634 31.3045 39.0471 31.3318V41.7655C37.5055 41.4204 35.8978 41.2453 34.2806 41.2463C25.606 41.2463 18.575 46.2096 18.575 52.3324C18.575 56.6618 22.0893 60.4099 27.2149 62.2358Z" fill="#FF004F"/>
<path d="M68.6693 25.6129C75.967 29.294 84.9029 31.4598 94.5556 31.4598V21.139C89.1676 20.3288 84.3979 18.3415 80.8117 15.5771C74.6733 12.8731 70.2505 8.41237 68.9537 3.19141H55.4219V55.5619C55.391 61.6673 48.3718 66.6107 39.7156 66.6107C34.615 66.6107 30.0832 64.8946 27.2134 62.2355C22.0887 60.4099 18.574 56.6615 18.574 52.3326C18.574 46.2104 25.6049 41.2466 34.2795 41.2466C35.9415 41.2466 37.5434 41.4292 39.0461 41.7658V31.3321C20.4173 31.6038 5.43555 42.3481 5.43555 55.5622C5.43555 62.1586 9.16623 68.1384 15.2214 72.5078C20.6841 75.0968 27.2599 76.6071 34.3354 76.6071C53.2974 76.6071 68.6697 65.7561 68.6697 52.3707L68.6693 25.6129Z" fill="black"/>
<path d="M94.5561 21.1393V18.3492C89.6973 18.3544 84.9345 17.394 80.8122 15.5777C84.4613 18.3975 89.2663 20.3421 94.5561 21.1399M68.9538 3.19172C68.8302 2.69286 68.7353 2.19065 68.6694 1.68634V0H49.9852V52.371C49.9555 58.4759 42.9363 63.4193 34.2796 63.4193C31.8256 63.4219 29.405 63.0168 27.2136 62.2367C30.0834 64.8952 34.6152 66.611 39.7157 66.611C48.3716 66.611 55.3915 61.6681 55.422 55.5628V3.192L68.9538 3.19172ZM39.0474 31.3324V28.3617C37.4861 28.2109 35.9121 28.1355 34.3363 28.136C15.3723 28.136 0 38.9868 0 52.371C0 60.7625 6.04151 68.1578 15.2223 72.5079C9.16715 68.1387 5.43646 62.1586 5.43646 55.5625C5.43646 42.3487 20.4178 31.6041 39.0474 31.3324Z" fill="#00F2EA"/>
</svg>
