<svg width="72" height="64" viewBox="0 0 72 64" fill="none" xmlns="http://www.w3.org/2000/svg">
<path d="M36 6C19.8422 6 6.75 17.6375 6.75 32V37C6.75 38.6625 5.24531 40 3.375 40C1.50469 40 0 38.6625 0 37V32C0 14.325 16.1156 0 36 0C55.8844 0 72 14.325 72 32V50.0125C72 56.0875 66.4594 61.0125 59.6109 61.0125L44.1 61C42.9328 62.7875 40.7531 64 38.25 64H33.75C30.0234 64 27 61.3125 27 58C27 54.6875 30.0234 52 33.75 52H38.25C40.7531 52 42.9328 53.2125 44.1 55L59.625 55.0125C62.7328 55.0125 65.25 52.775 65.25 50.0125V32C65.25 17.6375 52.1578 6 36 6ZM20.25 26H22.5C24.9891 26 27 27.7875 27 30V44C27 46.2125 24.9891 48 22.5 48H20.25C15.2859 48 11.25 44.4125 11.25 40V34C11.25 29.5875 15.2859 26 20.25 26ZM51.75 26C56.7141 26 60.75 29.5875 60.75 34V40C60.75 44.4125 56.7141 48 51.75 48H49.5C47.0109 48 45 46.2125 45 44V30C45 27.7875 47.0109 26 49.5 26H51.75Z" fill="black"/>
</svg>
