<svg width="32" height="32" viewBox="0 0 32 32" fill="none" xmlns="http://www.w3.org/2000/svg">
<path d="M25.2531 23.0257L32 29.771L29.771 32L23.0257 25.2531C20.5159 27.2651 17.3941 28.3594 14.1774 28.3548C6.35148 28.3548 0 22.0033 0 14.1774C0 6.35148 6.35148 0 14.1774 0C22.0033 0 28.3548 6.35148 28.3548 14.1774C28.3594 17.3941 27.2651 20.5159 25.2531 23.0257ZM22.0931 21.8568C24.0923 19.8009 25.2088 17.0451 25.2043 14.1774C25.2043 8.08585 20.269 3.15054 14.1774 3.15054C8.08585 3.15054 3.15054 8.08585 3.15054 14.1774C3.15054 20.269 8.08585 25.2043 14.1774 25.2043C17.0451 25.2088 19.8009 24.0923 21.8568 22.0931L22.0931 21.8568Z" fill="black"/>
</svg>
