<svg width="23" height="40" viewBox="0 0 23 40" fill="none" xmlns="http://www.w3.org/2000/svg">
<path d="M18.1932 19.741L1.44824 2.97353C1.28461 2.81075 1.15532 2.61678 1.068 2.40313C0.980694 2.18947 0.937148 1.96047 0.939945 1.72968C0.942743 1.49889 0.991827 1.27101 1.08429 1.05954C1.17675 0.848064 1.31072 0.657291 1.47824 0.498527C1.82091 0.173251 2.2769 -0.00558949 2.74933 1.43056e-05C3.22176 0.00561428 3.67339 0.195216 4.00824 0.528525L21.9907 18.536C22.1534 18.6976 22.2823 18.89 22.3697 19.1019C22.4572 19.3139 22.5015 19.5411 22.5001 19.7704C22.4987 19.9997 22.4516 20.2264 22.3616 20.4373C22.2715 20.6481 22.1404 20.8389 21.9757 20.9985L3.04824 39.486C2.7094 39.8132 2.25677 39.9961 1.78574 39.9961C1.31472 39.9961 0.862084 39.8132 0.523244 39.486C0.357681 39.3253 0.226064 39.1329 0.136187 38.9203C0.04631 38.7078 0 38.4793 0 38.2485C0 38.0177 0.04631 37.7893 0.136187 37.5767C0.226064 37.3642 0.357681 37.1718 0.523244 37.011L18.1932 19.741Z" fill="#2AE5E5"/>
</svg>
