<svg width="81" height="46" viewBox="0 0 81 46" fill="none" xmlns="http://www.w3.org/2000/svg">
<path d="M79.1167 7.11222C78.6601 5.73673 77.7598 4.48135 76.5059 3.47181C75.2521 2.46228 73.6886 1.73403 71.9722 1.36C65.6708 0 40.4028 0 40.4028 0C40.4028 0 15.1347 0 8.83333 1.36C7.11692 1.73403 5.55349 2.46228 4.29961 3.47181C3.04573 4.48135 2.14544 5.73673 1.68889 7.11222C8.27842e-07 12.1856 0 22.7722 0 22.7722C0 22.7722 8.27842e-07 33.3589 1.68889 38.4333C2.14544 39.8088 3.04573 41.0642 4.29961 42.0737C5.55349 43.0833 7.11692 43.8115 8.83333 44.1856C15.1347 45.5444 40.4028 45.5444 40.4028 45.5444C40.4028 45.5444 65.6708 45.5444 71.9722 44.1856C73.6886 43.8115 75.2521 43.0833 76.5059 42.0737C77.7598 41.0642 78.6601 39.8088 79.1167 38.4333C80.8055 33.3589 80.8055 22.7722 80.8055 22.7722C80.8055 22.7722 80.8055 12.1856 79.1167 7.11222Z" fill="#EA5A47"/>
</svg>
