<svg width="50" height="50" viewBox="0 0 50 50" fill="none" xmlns="http://www.w3.org/2000/svg">
<path d="M25 0C28.3152 0 31.4946 1.31696 33.8388 3.66116C36.183 6.00537 37.5 9.18479 37.5 12.5C37.5 15.8152 36.183 18.9946 33.8388 21.3388C31.4946 23.683 28.3152 25 25 25C21.6848 25 18.5054 23.683 16.1612 21.3388C13.817 18.9946 12.5 15.8152 12.5 12.5C12.5 9.18479 13.817 6.00537 16.1612 3.66116C18.5054 1.31696 21.6848 0 25 0ZM25 6.25C23.3424 6.25 21.7527 6.90848 20.5806 8.08058C19.4085 9.25268 18.75 10.8424 18.75 12.5C18.75 14.1576 19.4085 15.7473 20.5806 16.9194C21.7527 18.0915 23.3424 18.75 25 18.75C26.6576 18.75 28.2473 18.0915 29.4194 16.9194C30.5915 15.7473 31.25 14.1576 31.25 12.5C31.25 10.8424 30.5915 9.25268 29.4194 8.08058C28.2473 6.90848 26.6576 6.25 25 6.25ZM25 28.125C33.3438 28.125 50 32.2812 50 40.625V50H0V40.625C0 32.2812 16.6562 28.125 25 28.125ZM25 34.0625C15.7188 34.0625 5.9375 38.625 5.9375 40.625V44.0625H44.0625V40.625C44.0625 38.625 34.2812 34.0625 25 34.0625Z" fill="black"/>
</svg>
