<svg width="76" height="68" viewBox="0 0 76 68" fill="none" xmlns="http://www.w3.org/2000/svg">
<path d="M22.5705 57.7539L17.4287 66.0006" stroke="black" stroke-width="3.125" stroke-linecap="round" stroke-linejoin="round"/>
<path d="M53.4297 57.7539L58.5715 66.0006" stroke="black" stroke-width="3.125" stroke-linecap="round" stroke-linejoin="round"/>
<path d="M37.9998 61.4276C55.0418 61.4276 68.8571 49.1474 68.8571 33.999C68.8571 18.8505 55.0418 6.57031 37.9998 6.57031C20.9578 6.57031 7.14258 18.8505 7.14258 33.999C7.14258 49.1474 20.9578 61.4276 37.9998 61.4276Z" stroke="black" stroke-width="3.125" stroke-linecap="round" stroke-linejoin="round"/>
<path d="M8.17521 26.6882C5.80625 25.1099 3.99816 22.9591 2.96669 20.4924C1.93523 18.0257 1.72395 15.3473 2.35807 12.7768C2.99219 10.2063 4.44492 7.85225 6.54293 5.99554C8.64093 4.13882 11.2956 2.85786 14.1902 2.30551C17.0848 1.75315 20.097 1.95272 22.8675 2.88041C25.6379 3.80809 28.0496 5.42472 29.8148 7.53738" stroke="black" stroke-width="3.125" stroke-linecap="round" stroke-linejoin="round"/>
<path d="M38 6.57142L38.0001 2" stroke="black" stroke-width="3.125" stroke-linecap="round" stroke-linejoin="round"/>
<path d="M38 20.2852V33.9994" stroke="black" stroke-width="3.125" stroke-linecap="round" stroke-linejoin="round"/>
<path d="M38 34L48.9096 43.6975" stroke="black" stroke-width="3.125" stroke-linecap="round" stroke-linejoin="round"/>
<path d="M67.8251 26.6882C70.1941 25.1099 72.0022 22.9591 73.0337 20.4924C74.0651 18.0257 74.2764 15.3473 73.6423 12.7768C73.0082 10.2063 71.5554 7.85225 69.4574 5.99554C67.3594 4.13882 64.7047 2.85786 61.8102 2.30551C58.9156 1.75315 55.9034 1.95272 53.1329 2.88041C50.3624 3.80809 47.9507 5.42472 46.1855 7.53738" stroke="black" stroke-width="3.125" stroke-linecap="round" stroke-linejoin="round"/>
</svg>
